<svg width="560" height="200" viewBox="0 0 560 200" xmlns="http://www.w3.org/2000/svg" role="img">
  <title>SpiderFeet — dark mode logo, horizontal</title>
  <rect width="560" height="200" fill="#0a0f1e"/>
  <g transform="translate(100,100)">
    <line x1="0" y1="0" x2="0"    y2="-80" stroke="#1e3a5f" stroke-width="0.8"/>
    <line x1="0" y1="0" x2="57"   y2="-57" stroke="#1e3a5f" stroke-width="0.8"/>
    <line x1="0" y1="0" x2="80"   y2="0"   stroke="#1e3a5f" stroke-width="0.8"/>
    <line x1="0" y1="0" x2="57"   y2="57"  stroke="#1e3a5f" stroke-width="0.8"/>
    <line x1="0" y1="0" x2="0"    y2="80"  stroke="#1e3a5f" stroke-width="0.8"/>
    <line x1="0" y1="0" x2="-57"  y2="57"  stroke="#1e3a5f" stroke-width="0.8"/>
    <line x1="0" y1="0" x2="-80"  y2="0"   stroke="#1e3a5f" stroke-width="0.8"/>
    <line x1="0" y1="0" x2="-57"  y2="-57" stroke="#1e3a5f" stroke-width="0.8"/>
    <polygon points="0,-22 16,-16 22,0 16,16 0,22 -16,16 -22,0 -16,-16" fill="none" stroke="#164e63" stroke-width="0.8" opacity="0.9"/>
    <polygon points="0,-44 31,-31 44,0 31,31 0,44 -31,31 -44,0 -31,-31" fill="none" stroke="#164e63" stroke-width="0.8" opacity="0.7"/>
    <polygon points="0,-65 46,-46 65,0 46,46 0,65 -46,46 -65,0 -46,-46" fill="none" stroke="#164e63" stroke-width="0.8" opacity="0.5"/>
    <polygon points="0,-80 57,-57 80,0 57,57 0,80 -57,57 -80,0 -57,-57" fill="none" stroke="#164e63" stroke-width="0.8" opacity="0.35"/>
    <circle cx="0"   cy="-80" r="4" fill="#06b6d4"/>
    <circle cx="57"  cy="-57" r="4" fill="#06b6d4"/>
    <circle cx="80"  cy="0"   r="4" fill="#06b6d4"/>
    <circle cx="57"  cy="57"  r="4" fill="#06b6d4"/>
    <circle cx="0"   cy="80"  r="4" fill="#06b6d4"/>
    <circle cx="-57" cy="57"  r="4" fill="#06b6d4"/>
    <circle cx="-80" cy="0"   r="4" fill="#06b6d4"/>
    <circle cx="-57" cy="-57" r="4" fill="#06b6d4"/>
    <circle cx="0"   cy="-44" r="3" fill="#22d3ee" opacity="0.7"/>
    <circle cx="31"  cy="-31" r="3" fill="#22d3ee" opacity="0.7"/>
    <circle cx="44"  cy="0"   r="3" fill="#22d3ee" opacity="0.7"/>
    <circle cx="31"  cy="31"  r="3" fill="#22d3ee" opacity="0.7"/>
    <circle cx="0"   cy="44"  r="3" fill="#22d3ee" opacity="0.7"/>
    <circle cx="-31" cy="31"  r="3" fill="#22d3ee" opacity="0.7"/>
    <circle cx="-44" cy="0"   r="3" fill="#22d3ee" opacity="0.7"/>
    <circle cx="-31" cy="-31" r="3" fill="#22d3ee" opacity="0.7"/>
    <polyline points="-8,-10  -27,-28  -50,-15" fill="none" stroke="#475569" stroke-width="2.2" stroke-linecap="round" stroke-linejoin="round"/>
    <polyline points="-9,-4   -31,-13  -56,-6"  fill="none" stroke="#475569" stroke-width="2.2" stroke-linecap="round" stroke-linejoin="round"/>
    <polyline points="-9,4    -31,16   -54,28"  fill="none" stroke="#475569" stroke-width="2.2" stroke-linecap="round" stroke-linejoin="round"/>
    <polyline points="-8,13   -24,34   -42,48"  fill="none" stroke="#475569" stroke-width="2.2" stroke-linecap="round" stroke-linejoin="round"/>
    <polyline points="8,-10   27,-28   50,-15"  fill="none" stroke="#475569" stroke-width="2.2" stroke-linecap="round" stroke-linejoin="round"/>
    <polyline points="9,-4    31,-13   56,-6"   fill="none" stroke="#475569" stroke-width="2.2" stroke-linecap="round" stroke-linejoin="round"/>
    <polyline points="9,4     31,16    54,28"   fill="none" stroke="#475569" stroke-width="2.2" stroke-linecap="round" stroke-linejoin="round"/>
    <polyline points="8,13    24,34    42,48"   fill="none" stroke="#475569" stroke-width="2.2" stroke-linecap="round" stroke-linejoin="round"/>
    <circle cx="-50" cy="-15" r="3" fill="#f97316"/>
    <circle cx="-56" cy="-6"  r="3" fill="#f97316"/>
    <circle cx="-54" cy="28"  r="3" fill="#f97316"/>
    <circle cx="-42" cy="48"  r="3" fill="#f97316"/>
    <circle cx="50"  cy="-15" r="3" fill="#f97316"/>
    <circle cx="56"  cy="-6"  r="3" fill="#f97316"/>
    <circle cx="54"  cy="28"  r="3" fill="#f97316"/>
    <circle cx="42"  cy="48"  r="3" fill="#f97316"/>
    <polygon points="0,-4 10,6 7,22 0,28 -7,22 -10,6" fill="#cbd5e1"/>
    <line x1="0" y1="1" x2="0" y2="24" stroke="#94a3b8" stroke-width="0.9" opacity="0.5"/>
    <polyline points="-6,10 0,7 6,10" fill="none" stroke="#64748b" stroke-width="0.9" opacity="0.7"/>
    <polygon points="0,-15 8,-11 10,-3 6,4 -6,4 -10,-3 -8,-11" fill="#e2e8f0"/>
    <line x1="0" y1="-14" x2="0" y2="3" stroke="#94a3b8" stroke-width="0.7" opacity="0.5"/>
    <polyline points="-4,-14 -10,-21 -7,-25" fill="none" stroke="#94a3b8" stroke-width="1.8" stroke-linecap="round" stroke-linejoin="round"/>
    <polyline points="4,-14  10,-21  7,-25"  fill="none" stroke="#94a3b8" stroke-width="1.8" stroke-linecap="round" stroke-linejoin="round"/>
    <polygon points="-4,-15 -6,-22 -4,-26 -3,-21" fill="#cbd5e1"/>
    <polygon points="4,-15  6,-22  4,-26  3,-21"  fill="#cbd5e1"/>
    <circle cx="-3.5" cy="-11" r="2.5" fill="#f97316"/>
    <circle cx="3.5"  cy="-11" r="2.5" fill="#f97316"/>
    <circle cx="-7"   cy="-8"  r="1.5" fill="#fb923c" opacity="0.85"/>
    <circle cx="7"    cy="-8"  r="1.5" fill="#fb923c" opacity="0.85"/>
    <circle cx="-3"   cy="-12" r="0.8" fill="white" opacity="0.7"/>
    <circle cx="4"    cy="-12" r="0.8" fill="white" opacity="0.7"/>
  </g>
  <text x="210" y="88" font-family="monospace" font-size="36" font-weight="500" fill="#e2e8f0">Spider<tspan fill="#06b6d4">Feet</tspan></text>
  <text x="212" y="112" font-family="sans-serif" font-size="11" fill="#334155" letter-spacing="3">OSINT INTELLIGENCE</text>
</svg>
